
<svg xmlns="http://www.w3.org/2000/svg" width="64" height="64" viewBox="0 0 64 64" fill="none">
  <circle cx="32" cy="32" r="30" fill="url(#paint0_linear)" />
  <path fill-rule="evenodd" clip-rule="evenodd" d="M32 18C25.3726 18 20 23.3726 20 30V34C20 34.7364 19.403 35.3333 18.6667 35.3333C17.9303 35.3333 17.3333 34.7364 17.3333 34V30C17.3333 21.8954 23.8954 15.3333 32 15.3333C40.1046 15.3333 46.6667 21.8954 46.6667 30V34C46.6667 34.7364 46.0697 35.3333 45.3333 35.3333C44.597 35.3333 44 34.7364 44 34V30C44 23.3726 38.6274 18 32 18Z" fill="white"/>
  <rect x="22" y="32" width="20" height="16" rx="4" fill="white"/>
  <path d="M32 40C33.1046 40 34 39.1046 34 38C34 36.8954 33.1046 36 32 36C30.8954 36 30 36.8954 30 38C30 39.1046 30.8954 40 32 40Z" fill="#6366F1"/>
  <defs>
    <linearGradient id="paint0_linear" x1="32" y1="2" x2="32" y2="62" gradientUnits="userSpaceOnUse">
      <stop stop-color="#818CF8"/>
      <stop offset="1" stop-color="#6366F1"/>
    </linearGradient>
  </defs>
</svg>
